<mxfile host="app.diagrams.net" agent="Mozilla/5.0 (Windows NT 10.0; Win64; x64) AppleWebKit/537.36 (KHTML, like Gecko) Chrome/131.0.0.0 Safari/537.36" version="25.0.3">
  <diagram name="Page-1" id="5f0bae14-7c28-e335-631c-24af17079c00">
    <mxGraphModel dx="1434" dy="1588" grid="1" gridSize="10" guides="1" tooltips="1" connect="1" arrows="1" fold="1" page="1" pageScale="1" pageWidth="1100" pageHeight="850" background="none" math="0" shadow="0">
      <root>
        <mxCell id="0" />
        <mxCell id="1" parent="0" />
        <mxCell id="6phaNFnUsEhRjkLHSshi-2" value="&lt;div style=&quot;&quot;&gt;&lt;span style=&quot;background-color: initial;&quot;&gt;&lt;font style=&quot;font-size: 26px;&quot;&gt;Micro-controller&lt;/font&gt;&lt;/span&gt;&lt;/div&gt;&lt;div&gt;&lt;br&gt;&lt;/div&gt;" style="verticalAlign=top;align=center;spacingTop=8;spacingLeft=2;spacingRight=12;shape=cube;size=10;direction=north;fontStyle=4;html=1;rounded=0;shadow=0;comic=0;labelBackgroundColor=none;strokeWidth=1;fontFamily=Verdana;fontSize=12" parent="1" vertex="1">
          <mxGeometry x="10" y="350" width="1280" height="90" as="geometry" />
        </mxCell>
        <mxCell id="6phaNFnUsEhRjkLHSshi-5" value="&lt;font style=&quot;font-size: 26px;&quot;&gt;Main&lt;/font&gt;" style="verticalAlign=top;align=center;spacingTop=8;spacingLeft=2;spacingRight=12;shape=cube;size=10;direction=south;fontStyle=4;html=1;rounded=0;shadow=0;comic=0;labelBackgroundColor=none;strokeWidth=1;fontFamily=Verdana;fontSize=12" parent="1" vertex="1">
          <mxGeometry x="10" y="-130" width="1290" height="90" as="geometry" />
        </mxCell>
        <mxCell id="6phaNFnUsEhRjkLHSshi-6" value="&lt;font style=&quot;font-size: 26px;&quot;&gt;Register&lt;/font&gt;" style="verticalAlign=top;align=center;spacingTop=8;spacingLeft=2;spacingRight=12;shape=cube;size=10;direction=south;fontStyle=4;html=1;rounded=0;shadow=0;comic=0;labelBackgroundColor=none;strokeWidth=1;fontFamily=Verdana;fontSize=12" parent="1" vertex="1">
          <mxGeometry x="10" y="-40" width="130" height="370" as="geometry" />
        </mxCell>
        <mxCell id="6phaNFnUsEhRjkLHSshi-7" value="&lt;span style=&quot;font-size: 26px;&quot;&gt;DIO&lt;/span&gt;&lt;div&gt;&lt;span style=&quot;font-size: 26px;&quot;&gt;&lt;br&gt;&lt;/span&gt;&lt;/div&gt;" style="verticalAlign=top;align=center;spacingTop=8;spacingLeft=2;spacingRight=12;shape=cube;size=10;direction=south;fontStyle=4;html=1;rounded=0;shadow=0;comic=0;labelBackgroundColor=none;strokeWidth=1;fontFamily=Verdana;fontSize=12" parent="1" vertex="1">
          <mxGeometry x="270" y="280" width="550" height="60" as="geometry" />
        </mxCell>
        <mxCell id="6phaNFnUsEhRjkLHSshi-8" value="&lt;font style=&quot;font-size: 26px;&quot;&gt;DC_Motor&lt;/font&gt;" style="verticalAlign=top;align=center;spacingTop=8;spacingLeft=2;spacingRight=12;shape=cube;size=10;direction=south;fontStyle=4;html=1;rounded=0;shadow=0;comic=0;labelBackgroundColor=none;strokeWidth=1;fontFamily=Verdana;fontSize=12" parent="1" vertex="1">
          <mxGeometry x="635" y="-30" width="180" height="60" as="geometry" />
        </mxCell>
        <mxCell id="6phaNFnUsEhRjkLHSshi-9" value="&lt;span style=&quot;font-size: 26px;&quot;&gt;UART&lt;/span&gt;" style="verticalAlign=top;align=center;spacingTop=8;spacingLeft=2;spacingRight=12;shape=cube;size=10;direction=south;fontStyle=4;html=1;rounded=0;shadow=0;comic=0;labelBackgroundColor=none;strokeWidth=1;fontFamily=Verdana;fontSize=12" parent="1" vertex="1">
          <mxGeometry x="150" y="285" width="110" height="55" as="geometry" />
        </mxCell>
        <mxCell id="6phaNFnUsEhRjkLHSshi-10" value="&lt;span style=&quot;font-size: 26px;&quot;&gt;LCD&lt;/span&gt;" style="verticalAlign=top;align=center;spacingTop=8;spacingLeft=2;spacingRight=12;shape=cube;size=10;direction=south;fontStyle=4;html=1;rounded=0;shadow=0;comic=0;labelBackgroundColor=none;strokeWidth=1;fontFamily=Verdana;fontSize=12" parent="1" vertex="1">
          <mxGeometry x="980" y="40" width="160" height="70" as="geometry" />
        </mxCell>
        <mxCell id="6phaNFnUsEhRjkLHSshi-11" value="&lt;font style=&quot;font-size: 26px;&quot;&gt;keypad&lt;/font&gt;&lt;div&gt;&lt;font style=&quot;font-size: 26px;&quot;&gt;&lt;br&gt;&lt;/font&gt;&lt;/div&gt;" style="verticalAlign=top;align=center;spacingTop=8;spacingLeft=2;spacingRight=12;shape=cube;size=10;direction=south;fontStyle=4;html=1;rounded=0;shadow=0;comic=0;labelBackgroundColor=none;strokeWidth=1;fontFamily=Verdana;fontSize=12" parent="1" vertex="1">
          <mxGeometry x="240" y="-35" width="130" height="70" as="geometry" />
        </mxCell>
        <mxCell id="6phaNFnUsEhRjkLHSshi-13" value="&lt;span style=&quot;font-size: 26px;&quot;&gt;Servo&lt;/span&gt;&lt;div&gt;&lt;span style=&quot;font-size: 26px;&quot;&gt;&lt;br&gt;&lt;/span&gt;&lt;/div&gt;" style="verticalAlign=top;align=center;spacingTop=8;spacingLeft=2;spacingRight=12;shape=cube;size=10;direction=south;fontStyle=4;html=1;rounded=0;shadow=0;comic=0;labelBackgroundColor=none;strokeWidth=1;fontFamily=Verdana;fontSize=12" parent="1" vertex="1">
          <mxGeometry x="525" y="-30" width="110" height="60" as="geometry" />
        </mxCell>
        <mxCell id="fbuZiBp45jAydQB__u6O-7" style="edgeStyle=orthogonalEdgeStyle;rounded=0;orthogonalLoop=1;jettySize=auto;html=1;" edge="1" parent="1" source="6phaNFnUsEhRjkLHSshi-14">
          <mxGeometry relative="1" as="geometry">
            <mxPoint x="1235" y="40" as="targetPoint" />
          </mxGeometry>
        </mxCell>
        <mxCell id="6phaNFnUsEhRjkLHSshi-14" value="&lt;span style=&quot;font-size: 26px;&quot;&gt;EEPROM&lt;/span&gt;" style="verticalAlign=top;align=center;spacingTop=8;spacingLeft=2;spacingRight=12;shape=cube;size=10;direction=south;fontStyle=4;html=1;rounded=0;shadow=0;comic=0;labelBackgroundColor=none;strokeWidth=1;fontFamily=Verdana;fontSize=12" parent="1" vertex="1">
          <mxGeometry x="1170" y="260" width="130" height="80" as="geometry" />
        </mxCell>
        <mxCell id="6phaNFnUsEhRjkLHSshi-15" value="&lt;font style=&quot;font-size: 26px;&quot;&gt;Menu&lt;/font&gt;" style="verticalAlign=top;align=center;spacingTop=8;spacingLeft=2;spacingRight=12;shape=cube;size=10;direction=south;fontStyle=4;html=1;rounded=0;shadow=0;comic=0;labelBackgroundColor=none;strokeWidth=1;fontFamily=Verdana;fontSize=12" parent="1" vertex="1">
          <mxGeometry x="990" y="-30" width="110" height="60" as="geometry" />
        </mxCell>
        <mxCell id="6phaNFnUsEhRjkLHSshi-16" value="&lt;span style=&quot;font-size: 26px;&quot;&gt;ADC&lt;/span&gt;" style="verticalAlign=top;align=center;spacingTop=8;spacingLeft=2;spacingRight=12;shape=cube;size=10;direction=south;fontStyle=4;html=1;rounded=0;shadow=0;comic=0;labelBackgroundColor=none;strokeWidth=1;fontFamily=Verdana;fontSize=12" parent="1" vertex="1">
          <mxGeometry x="830" y="280" width="110" height="60" as="geometry" />
        </mxCell>
        <mxCell id="fbuZiBp45jAydQB__u6O-11" style="edgeStyle=orthogonalEdgeStyle;rounded=0;orthogonalLoop=1;jettySize=auto;html=1;" edge="1" parent="1" source="6phaNFnUsEhRjkLHSshi-17" target="6phaNFnUsEhRjkLHSshi-13">
          <mxGeometry relative="1" as="geometry" />
        </mxCell>
        <mxCell id="6phaNFnUsEhRjkLHSshi-17" value="&lt;font style=&quot;font-size: 26px;&quot;&gt;PWM&lt;/font&gt;" style="verticalAlign=top;align=center;spacingTop=8;spacingLeft=2;spacingRight=12;shape=cube;size=10;direction=south;fontStyle=4;html=1;rounded=0;shadow=0;comic=0;labelBackgroundColor=none;strokeWidth=1;fontFamily=Verdana;fontSize=12" parent="1" vertex="1">
          <mxGeometry x="525" y="220" width="285" height="60" as="geometry" />
        </mxCell>
        <mxCell id="fbuZiBp45jAydQB__u6O-3" value="&lt;font style=&quot;font-size: 26px;&quot;&gt;LED&lt;/font&gt;&lt;div&gt;&lt;font style=&quot;font-size: 26px;&quot;&gt;&lt;br&gt;&lt;/font&gt;&lt;/div&gt;" style="verticalAlign=top;align=center;spacingTop=8;spacingLeft=2;spacingRight=12;shape=cube;size=10;direction=south;fontStyle=4;html=1;rounded=0;shadow=0;comic=0;labelBackgroundColor=none;strokeWidth=1;fontFamily=Verdana;fontSize=12" vertex="1" parent="1">
          <mxGeometry x="370" y="-30" width="155" height="60" as="geometry" />
        </mxCell>
        <mxCell id="fbuZiBp45jAydQB__u6O-4" value="&lt;font style=&quot;font-size: 26px;&quot;&gt;Sensors&lt;/font&gt;" style="verticalAlign=top;align=center;spacingTop=8;spacingLeft=2;spacingRight=12;shape=cube;size=10;direction=south;fontStyle=4;html=1;rounded=0;shadow=0;comic=0;labelBackgroundColor=none;strokeWidth=1;fontFamily=Verdana;fontSize=12" vertex="1" parent="1">
          <mxGeometry x="810" y="-32.5" width="170" height="70" as="geometry" />
        </mxCell>
        <mxCell id="fbuZiBp45jAydQB__u6O-5" value="&lt;font style=&quot;font-size: 26px;&quot;&gt;Settings&lt;/font&gt;" style="verticalAlign=top;align=center;spacingTop=8;spacingLeft=2;spacingRight=12;shape=cube;size=10;direction=south;fontStyle=4;html=1;rounded=0;shadow=0;comic=0;labelBackgroundColor=none;strokeWidth=1;fontFamily=Verdana;fontSize=12" vertex="1" parent="1">
          <mxGeometry x="1170" y="-27.5" width="130" height="65" as="geometry" />
        </mxCell>
        <mxCell id="fbuZiBp45jAydQB__u6O-8" style="edgeStyle=orthogonalEdgeStyle;rounded=0;orthogonalLoop=1;jettySize=auto;html=1;entryX=1.033;entryY=0.849;entryDx=0;entryDy=0;entryPerimeter=0;" edge="1" parent="1" source="6phaNFnUsEhRjkLHSshi-9" target="6phaNFnUsEhRjkLHSshi-5">
          <mxGeometry relative="1" as="geometry" />
        </mxCell>
        <mxCell id="fbuZiBp45jAydQB__u6O-10" style="edgeStyle=orthogonalEdgeStyle;rounded=0;orthogonalLoop=1;jettySize=auto;html=1;entryX=1;entryY=0.124;entryDx=0;entryDy=0;entryPerimeter=0;" edge="1" parent="1" source="6phaNFnUsEhRjkLHSshi-10" target="6phaNFnUsEhRjkLHSshi-5">
          <mxGeometry relative="1" as="geometry">
            <Array as="points">
              <mxPoint x="1110" />
              <mxPoint x="1140" />
            </Array>
          </mxGeometry>
        </mxCell>
        <mxCell id="fbuZiBp45jAydQB__u6O-12" style="edgeStyle=orthogonalEdgeStyle;rounded=0;orthogonalLoop=1;jettySize=auto;html=1;entryX=1.05;entryY=0.433;entryDx=0;entryDy=0;entryPerimeter=0;" edge="1" parent="1" source="6phaNFnUsEhRjkLHSshi-17" target="6phaNFnUsEhRjkLHSshi-8">
          <mxGeometry relative="1" as="geometry" />
        </mxCell>
      </root>
    </mxGraphModel>
  </diagram>
</mxfile>
